<svg width="14" height="13" viewBox="0 0 14 13" fill="none" xmlns="http://www.w3.org/2000/svg">
<path d="M11.3333 0H2C1.46957 0 0.960859 0.210714 0.585786 0.585787C0.210714 0.960859 0 1.46957 0 2V12C0.000203571 12.1181 0.0317925 12.2341 0.0915337 12.336C0.151275 12.4379 0.237022 12.5221 0.34 12.58C0.439637 12.6365 0.552141 12.6663 0.666667 12.6667C0.786322 12.6666 0.903763 12.6344 1.00667 12.5733L4 10.76C4.11064 10.6941 4.238 10.6617 4.36667 10.6667H11.3333C11.8638 10.6667 12.3725 10.456 12.7475 10.0809C13.1226 9.70581 13.3333 9.1971 13.3333 8.66667V2C13.3333 1.46957 13.1226 0.960859 12.7475 0.585787C12.3725 0.210714 11.8638 0 11.3333 0ZM4 6C3.86815 6 3.73925 5.9609 3.62962 5.88765C3.51999 5.81439 3.43454 5.71027 3.38408 5.58846C3.33362 5.46664 3.32042 5.33259 3.34614 5.20327C3.37187 5.07395 3.43536 4.95516 3.5286 4.86193C3.62183 4.76869 3.74062 4.7052 3.86994 4.67948C3.99926 4.65375 4.13331 4.66696 4.25512 4.71741C4.37694 4.76787 4.48106 4.85332 4.55431 4.96295C4.62757 5.07259 4.66667 5.20148 4.66667 5.33333C4.66667 5.51015 4.59643 5.67971 4.4714 5.80474C4.34638 5.92976 4.17681 6 4 6ZM6.66667 6C6.53481 6 6.40592 5.9609 6.29629 5.88765C6.18665 5.81439 6.1012 5.71027 6.05075 5.58846C6.00029 5.46664 5.98709 5.33259 6.01281 5.20327C6.03853 5.07395 6.10203 4.95516 6.19526 4.86193C6.2885 4.76869 6.40729 4.7052 6.53661 4.67948C6.66593 4.65375 6.79997 4.66696 6.92179 4.71741C7.04361 4.76787 7.14773 4.85332 7.22098 4.96295C7.29423 5.07259 7.33333 5.20148 7.33333 5.33333C7.33333 5.51015 7.26309 5.67971 7.13807 5.80474C7.01305 5.92976 6.84348 6 6.66667 6ZM9.33333 6C9.20148 6 9.07259 5.9609 8.96295 5.88765C8.85332 5.81439 8.76787 5.71027 8.71741 5.58846C8.66695 5.46664 8.65375 5.33259 8.67948 5.20327C8.7052 5.07395 8.76869 4.95516 8.86193 4.86193C8.95516 4.76869 9.07395 4.7052 9.20327 4.67948C9.33259 4.65375 9.46664 4.66696 9.58845 4.71741C9.71027 4.76787 9.81439 4.85332 9.88765 4.96295C9.9609 5.07259 10 5.20148 10 5.33333C10 5.51015 9.92976 5.67971 9.80474 5.80474C9.67971 5.92976 9.51014 6 9.33333 6Z" fill="#9487B8"/>
</svg>
